<svg width="282" height="282" viewBox="0 0 282 282" fill="none" xmlns="http://www.w3.org/2000/svg">
<path fill-rule="evenodd" clip-rule="evenodd" d="M35.0298 48.1387C39.8968 48.1387 43.8423 52.0842 43.8423 56.9512V101.014H87.9048C92.7718 101.014 96.7173 104.959 96.7173 109.826C96.7173 114.693 92.7718 118.639 87.9048 118.639H35.0298C30.1628 118.639 26.2173 114.693 26.2173 109.826V56.9512C26.2173 52.0842 30.1628 48.1387 35.0298 48.1387Z" fill="black"/>
<path fill-rule="evenodd" clip-rule="evenodd" d="M120.394 37.2883C140.909 33.2009 162.177 35.2901 181.505 43.2915C200.833 51.293 217.354 64.8472 228.978 82.2395C240.602 99.6319 246.806 120.081 246.806 141C246.806 161.919 240.602 182.368 228.978 199.761C217.354 217.153 200.833 230.707 181.505 238.709C162.177 246.71 140.909 248.799 120.394 244.712C99.8777 240.624 81.035 230.544 66.249 215.746C62.8089 212.303 62.8112 206.723 66.2541 203.283C69.697 199.843 75.2767 199.846 78.7168 203.288C91.0385 215.62 106.741 224.02 123.837 227.426C140.934 230.833 158.656 229.092 174.763 222.424C190.87 215.756 204.638 204.461 214.324 189.967C224.011 175.474 229.181 158.433 229.181 141C229.181 123.567 224.011 106.527 214.324 92.0329C204.638 77.5393 190.87 66.2441 174.763 59.5763C158.656 52.9084 140.934 51.1675 123.837 54.5736C106.741 57.9798 91.0385 66.38 78.7168 78.7117L78.7051 78.7234L41.252 116.066C37.8054 119.503 32.2257 119.495 28.7892 116.048C25.3528 112.601 25.361 107.022 28.8076 103.585L66.249 66.254C66.251 66.252 66.253 66.2501 66.2549 66.2481C81.04 51.4533 99.8804 41.3752 120.394 37.2883Z" fill="black"/>
</svg>
